#!OML:ASF G:\JayActor3\Patient Classification 1\Patient 1\Session 6\male.ASF
:FULLY-SPECIFIED
:DEGREES
829
root 6.76367 16.2688 -2.8787 372.176 -42.3117 -351.618
lowerback 22.4656 1.27355 6.03506
upperback 17.9484 1.66729 1.29821
thorax 7.70892 1.07848 -2.24288
lowerneck 8.13661 -3.23323 0.387084
upperneck 14.6537 -3.79055 -6.12682
head 3.21377 -2.02031 -2.08752
rclavicle 5.88403e-014 1.74931e-014
rhumerus 14.389 7.92441 -25.7702
rradius 108.375
rwrist 13.2559
rhand -31.0638 -2.18017
rfingers 7.12502
rthumb -4.34477 -32.1156
lclavicle 5.88403e-014 1.74931e-014
lhumerus -47.9598 4.7565 89.666
lradius 25.015
lwrist 30.4864
lhand -6.9729 11.2206
lfingers 7.12502
lthumb 18.8969 40.3226
rfemur -46.9607 -4.41617 15.5812
rtibia 52.1688
rfoot -24.7642 -15.3284
rtoes 9.36013
lfemur -51.7241 10.929 -30.698
ltibia 49.5957
lfoot 0.830452 -5.79805
ltoes -1.43039
830
root 6.77181 16.2546 -2.90635 372.512 -42.3799 -351.613
lowerback 22.8594 1.46409 5.80157
upperback 17.9795 1.89277 1.26063
thorax 7.55794 1.16613 -2.19679
lowerneck 8.16481 -3.29784 0.186764
upperneck 14.3451 -3.9116 -5.88613
head 3.10377 -2.07564 -1.96169
rclavicle 2.38542e-014 -6.12257e-014
rhumerus 14.3829 7.99944 -25.709
rradius 108.2
rwrist 13.0975
rhand -31.0267 -2.17627
rfingers 7.12502
rthumb -4.30895 -32.1124
lclavicle 2.38542e-014 -6.12257e-014
lhumerus -48.3088 4.39784 90.081
lradius 25.0575
lwrist 30.6703
lhand -6.62416 11.4811
lfingers 7.12502
lthumb 19.2323 40.5502
rfemur -47.6359 -4.64303 15.7491
rtibia 52.4297
rfoot -24.6522 -15.1173
rtoes 9.43773
lfemur -52.0128 10.9013 -30.8818
ltibia 49.3294
lfoot 1.02666 -5.1546
ltoes -1.3606
831
root 6.7802 16.2384 -2.93302 372.834 -42.439 -351.629
lowerback 23.289 1.65171 5.56346
upperback 18.0116 2.11189 1.24167
thorax 7.38921 1.24824 -2.12981
lowerneck 8.16738 -3.3627 0.00337728
upperneck 14.0443 -4.02852 -5.67868
head 3.00162 -2.12961 -1.85166
rclavicle 4.77083e-015 -2.62396e-014
rhumerus 14.3895 8.11072 -25.6201
rradius 107.977
rwrist 12.927
rhand -30.9829 -2.18832
rfingers 7.12502
rthumb -4.26665 -32.1253
lclavicle 4.77083e-015 -2.62396e-014
lhumerus -48.6388 4.19283 90.3492
lradius 25.0534
lwrist 30.8482
lhand -6.28132 11.7086
lfingers 7.12502
lthumb 19.5619 40.7445
rfemur -48.2775 -4.84503 15.9251
rtibia 52.7015
rfoot -24.5808 -14.922
rtoes 9.50839
lfemur -52.2024 10.8295 -31.003
ltibia 48.9664
lfoot 0.967093 -4.8074
ltoes -1.53618
832
root 6.78905 16.2208 -2.95874 373.142 -42.4769 -351.66
lowerback 23.7478 1.83482 5.32324
upperback 18.0441 2.32266 1.24433
thorax 7.20531 1.32409 -2.03975
lowerneck 8.15485 -3.43 -0.166521
upperneck 13.7432 -4.14504 -5.50212
head 2.90242 -2.1838 -1.7553
rclavicle 0 -6.59965e-014
rhumerus 14.4017 8.25521 -25.5027
rradius 107.709
rwrist 12.7577
rhand -30.9421 -2.21975
rfingers 7.12502
rthumb -4.22718 -32.1576
lclavicle 0 -6.59965e-014
lhumerus -48.9451 4.15077 90.4645
lradius 24.991
lwrist 31.0007
lhand -5.95402 11.8932
lfingers 7.12502
lthumb 19.8766 40.8968
rfemur -48.8847 -5.03385 16.102
rtibia 52.9795
rfoot -24.5457 -14.726
rtoes 9.60094
lfemur -52.3049 10.6899 -31.0544
ltibia 48.5349
lfoot 0.656211 -4.67483
ltoes -1.90247
833
root 6.79889 16.202 -2.98322 373.467 -42.4782 -351.732
lowerback 24.2378 1.99537 5.12299
upperback 18.0664 2.51055 1.26115
thorax 6.99512 1.39099 -1.95622
lowerneck 8.15217 -3.49156 -0.335306
upperneck 13.4321 -4.25357 -5.33669
head 2.79921 -2.23417 -1.66295
rclavicle 5.88403e-014 -3.02153e-014
rhumerus 14.4257 8.44117 -25.3745
rradius 107.393
rwrist 12.5986
rhand -30.9156 -2.25438
rfingers 7.12502
rthumb -4.20165 -32.1927
lclavicle 5.88403e-014 -3.02153e-014
lhumerus -49.2349 4.2812 90.4065
lradius 24.8685
lwrist 31.1109
lhand -5.66991 12.0313
lfingers 7.12502
lthumb 20.1496 41.0063
rfemur -49.4672 -5.22448 16.3029
rtibia 53.2604
rfoot -24.5388 -14.5283
rtoes 9.68514
lfemur -52.3519 10.4696 -31.0149
ltibia 48.069
lfoot 0.139662 -4.65147
ltoes -2.43674
834
root 6.8098 16.1821 -3.00646 373.826 -42.4306 -351.855
lowerback 24.7352 2.1219 5.0052
upperback 18.0843 2.66775 1.27761
thorax 6.78175 1.45094 -1.91615
lowerneck 8.15664 -3.548 -0.500947
upperneck 13.1117 -4.35614 -5.16232
head 2.69294 -2.28113 -1.56844
rclavicle 4.13472e-014 3.26007e-014
rhumerus 14.4578 8.65131 -25.2647
rradius 107.025
rwrist 12.4553
rhand -30.9089 -2.29266
rfingers 7.12502
rthumb -4.19513 -32.2311
lclavicle 4.13472e-014 3.26007e-014
lhumerus -49.4956 4.53391 90.1819
lradius 24.6986
lwrist 31.1631
lhand -5.46112 12.1224
lfingers 7.12502
lthumb 20.3503 41.0762
rfemur -50.036 -5.42823 16.5401
rtibia 53.5412
rfoot -24.5458 -14.336
rtoes 9.73474
lfemur -52.3731 10.1572 -30.8772
ltibia 47.595
lfoot -0.489142 -4.61423
ltoes -3.17817
